<mxfile host="drawio-plugin" modified="2024-11-24T17:37:31.599Z" agent="Mozilla/5.0 (Windows NT 10.0; Win64; x64) AppleWebKit/537.36 (KHTML, like Gecko) Chrome/122.0.0.0 Safari/537.36" etag="ayZUI1jCn30eciGT1Dv0" version="22.1.22" type="embed">
  <diagram id="Us82pt0M0TMXCUUHgqrs" name="Page-1">
    <mxGraphModel dx="944" dy="739" grid="1" gridSize="10" guides="1" tooltips="1" connect="1" arrows="1" fold="1" page="1" pageScale="1" pageWidth="850" pageHeight="1100" math="0" shadow="0">
      <root>
        <mxCell id="0" />
        <mxCell id="1" parent="0" />
        <mxCell id="3" value="&lt;b style=&quot;background-color: initial;&quot;&gt;Infraescture&lt;/b&gt;" style="html=1;dropTarget=0;whiteSpace=wrap;aspect=fixed;container=1;align=center;horizontal=1;verticalAlign=top;" parent="1" vertex="1">
          <mxGeometry x="160" y="130" width="720" height="252" as="geometry" />
        </mxCell>
        <mxCell id="4" value="Application Services" style="html=1;dropTarget=0;whiteSpace=wrap;aspect=fixed;container=1;align=center;horizontal=1;verticalAlign=top;" parent="1" vertex="1">
          <mxGeometry x="152.85999999999999" y="450" width="720" height="252" as="geometry" />
        </mxCell>
        <mxCell id="5" value="Entities/Core/Domain" style="html=1;dropTarget=0;whiteSpace=wrap;aspect=fixed;container=1;align=center;horizontal=1;verticalAlign=top;" parent="1" vertex="1">
          <mxGeometry x="160" y="740" width="712.86" height="249.5" as="geometry" />
        </mxCell>
        <mxCell id="7" value="Patient.service.ts" style="rounded=0;whiteSpace=wrap;html=1;" parent="1" vertex="1">
          <mxGeometry x="175" y="260" width="110" height="16" as="geometry" />
        </mxCell>
        <mxCell id="8" value="&amp;lt;&amp;lt;controller&amp;gt;&amp;gt;&lt;br&gt;PatientController" style="rounded=0;whiteSpace=wrap;html=1;" parent="1" vertex="1">
          <mxGeometry x="180" y="530" width="100" height="40" as="geometry" />
        </mxCell>
        <mxCell id="12" value="authentication.service.ts" style="rounded=0;whiteSpace=wrap;html=1;" parent="1" vertex="1">
          <mxGeometry x="275" y="296" width="130" height="20" as="geometry" />
        </mxCell>
        <mxCell id="13" value="&amp;lt;&amp;lt;controller&amp;gt;&amp;gt;&lt;br style=&quot;border-color: var(--border-color);&quot;&gt;UserController" style="rounded=0;whiteSpace=wrap;html=1;" parent="1" vertex="1">
          <mxGeometry x="240" y="490" width="100" height="30" as="geometry" />
        </mxCell>
        <mxCell id="15" value="&amp;lt;&amp;lt;controller&amp;gt;&amp;gt;&lt;br style=&quot;border-color: var(--border-color);&quot;&gt;OperationController" style="rounded=0;whiteSpace=wrap;html=1;" parent="1" vertex="1">
          <mxGeometry x="345" y="540" width="160" height="30" as="geometry" />
        </mxCell>
        <mxCell id="16" value="Doctor.service.ts" style="rounded=0;whiteSpace=wrap;html=1;" parent="1" vertex="1">
          <mxGeometry x="451.61" y="346" width="122.5" height="17.75" as="geometry" />
        </mxCell>
        <mxCell id="21" value="" style="endArrow=none;dashed=1;html=1;dashPattern=1 3;strokeWidth=2;rounded=0;exitX=0.5;exitY=0;exitDx=0;exitDy=0;startArrow=classic;startFill=1;entryX=0.75;entryY=1;entryDx=0;entryDy=0;" parent="1" target="16" edge="1">
          <mxGeometry width="50" height="50" relative="1" as="geometry">
            <mxPoint x="481.68" y="540" as="sourcePoint" />
            <mxPoint x="501.35859308671934" y="377.75" as="targetPoint" />
            <Array as="points" />
          </mxGeometry>
        </mxCell>
        <mxCell id="22" value="operation-type.service.ts" style="rounded=0;whiteSpace=wrap;html=1;" parent="1" vertex="1">
          <mxGeometry x="451.61" y="276" width="140" height="20" as="geometry" />
        </mxCell>
        <mxCell id="23" value="&amp;lt;&amp;lt;controller&amp;gt;&amp;gt;&lt;br&gt;OperationTypeController" style="rounded=0;whiteSpace=wrap;html=1;" parent="1" vertex="1">
          <mxGeometry x="405" y="590" width="160" height="30" as="geometry" />
        </mxCell>
        <mxCell id="24" value="" style="endArrow=none;dashed=1;html=1;dashPattern=1 3;strokeWidth=2;rounded=0;entryX=0.75;entryY=1;entryDx=0;entryDy=0;startArrow=classic;startFill=1;exitX=0.75;exitY=0;exitDx=0;exitDy=0;" parent="1" source="23" target="22" edge="1">
          <mxGeometry width="50" height="50" relative="1" as="geometry">
            <mxPoint x="533" y="580" as="sourcePoint" />
            <mxPoint x="560" y="350" as="targetPoint" />
            <Array as="points">
              <mxPoint x="590" y="360" />
            </Array>
          </mxGeometry>
        </mxCell>
        <mxCell id="27" value="Staff.service.ts" style="rounded=0;whiteSpace=wrap;html=1;" parent="1" vertex="1">
          <mxGeometry x="350" y="330" width="105" height="16" as="geometry" />
        </mxCell>
        <mxCell id="28" value="" style="endArrow=none;dashed=1;html=1;dashPattern=1 3;strokeWidth=2;rounded=0;exitX=0.5;exitY=0;exitDx=0;exitDy=0;startArrow=classic;startFill=1;" parent="1" source="29" target="27" edge="1">
          <mxGeometry width="50" height="50" relative="1" as="geometry">
            <mxPoint x="510" y="400" as="sourcePoint" />
            <mxPoint x="560" y="350" as="targetPoint" />
          </mxGeometry>
        </mxCell>
        <mxCell id="29" value="&amp;lt;&amp;lt;controller&amp;gt;&amp;gt;&lt;br&gt;StaffController" style="rounded=0;whiteSpace=wrap;html=1;" parent="1" vertex="1">
          <mxGeometry x="267.5" y="590" width="115" height="30" as="geometry" />
        </mxCell>
        <mxCell id="30" value="User.service.ts" style="rounded=0;whiteSpace=wrap;html=1;" parent="1" vertex="1">
          <mxGeometry x="210" y="330" width="110" height="20" as="geometry" />
        </mxCell>
        <mxCell id="33" value="" style="endArrow=none;dashed=1;html=1;dashPattern=1 3;strokeWidth=2;rounded=0;exitX=0.3;exitY=0.333;exitDx=0;exitDy=0;exitPerimeter=0;startArrow=classic;startFill=1;" parent="1" source="13" target="30" edge="1">
          <mxGeometry width="50" height="50" relative="1" as="geometry">
            <mxPoint x="210" y="390" as="sourcePoint" />
            <mxPoint x="260" y="340" as="targetPoint" />
          </mxGeometry>
        </mxCell>
        <mxCell id="34" style="edgeStyle=orthogonalEdgeStyle;rounded=0;orthogonalLoop=1;jettySize=auto;html=1;exitX=0.5;exitY=1;exitDx=0;exitDy=0;" parent="1" source="7" target="7" edge="1">
          <mxGeometry relative="1" as="geometry" />
        </mxCell>
        <mxCell id="38" value="" style="endArrow=none;dashed=1;html=1;dashPattern=1 3;strokeWidth=2;rounded=0;entryX=0.091;entryY=1.313;entryDx=0;entryDy=0;entryPerimeter=0;exitX=0.09;exitY=0;exitDx=0;exitDy=0;exitPerimeter=0;startArrow=classic;startFill=1;" parent="1" source="8" target="7" edge="1">
          <mxGeometry width="50" height="50" relative="1" as="geometry">
            <mxPoint x="510" y="400" as="sourcePoint" />
            <mxPoint x="560" y="350" as="targetPoint" />
          </mxGeometry>
        </mxCell>
        <mxCell id="43" value="IRepositoriesY" style="rounded=1;whiteSpace=wrap;html=1;" parent="1" vertex="1">
          <mxGeometry x="660" y="790" width="120" height="60" as="geometry" />
        </mxCell>
        <mxCell id="46" value="Aggregates" style="html=1;dropTarget=0;whiteSpace=wrap;aspect=fixed;container=1;align=center;horizontal=1;verticalAlign=top;" parent="1" vertex="1">
          <mxGeometry x="225" y="790" width="400.73" height="140.25" as="geometry" />
        </mxCell>
        <mxCell id="48" value="&amp;lt;&amp;lt;Root&amp;gt;&amp;gt;&lt;br&gt;X" style="rounded=0;whiteSpace=wrap;html=1;" parent="1" vertex="1">
          <mxGeometry x="345" y="830" width="115" height="34.75" as="geometry" />
        </mxCell>
        <mxCell id="49" value="&amp;lt;&amp;lt;Entity&amp;gt;&amp;gt;&lt;br&gt;A" style="rounded=0;whiteSpace=wrap;html=1;" parent="1" vertex="1">
          <mxGeometry x="345.72" y="890" width="120" height="30" as="geometry" />
        </mxCell>
        <mxCell id="50" value="Value Objects" style="html=1;dropTarget=0;whiteSpace=wrap;aspect=fixed;container=1;align=center;horizontal=1;verticalAlign=top;" parent="1" vertex="1">
          <mxGeometry x="180" y="1010" width="457.14" height="160" as="geometry" />
        </mxCell>
        <mxCell id="51" value="&amp;lt;&amp;lt;Value Object&amp;gt;&amp;gt;&lt;br&gt;L" style="rounded=1;whiteSpace=wrap;html=1;" parent="1" vertex="1">
          <mxGeometry x="260" y="1050" width="120" height="60" as="geometry" />
        </mxCell>
        <mxCell id="52" value="&amp;lt;&amp;lt;Value Object&amp;gt;&amp;gt;&lt;br&gt;K" style="rounded=1;whiteSpace=wrap;html=1;" parent="1" vertex="1">
          <mxGeometry x="425" y="1050" width="120" height="60" as="geometry" />
        </mxCell>
        <mxCell id="53" value="" style="endArrow=none;html=1;rounded=0;entryX=0.25;entryY=1;entryDx=0;entryDy=0;exitX=0.75;exitY=0;exitDx=0;exitDy=0;startArrow=classic;startFill=1;" parent="1" source="51" target="49" edge="1">
          <mxGeometry width="50" height="50" relative="1" as="geometry">
            <mxPoint x="510" y="980" as="sourcePoint" />
            <mxPoint x="560" y="930" as="targetPoint" />
          </mxGeometry>
        </mxCell>
        <mxCell id="54" value="" style="endArrow=none;html=1;rounded=0;entryX=0.75;entryY=1;entryDx=0;entryDy=0;exitX=0.25;exitY=0;exitDx=0;exitDy=0;startArrow=classic;startFill=1;" parent="1" source="52" target="49" edge="1">
          <mxGeometry width="50" height="50" relative="1" as="geometry">
            <mxPoint x="510" y="980" as="sourcePoint" />
            <mxPoint x="560" y="930" as="targetPoint" />
          </mxGeometry>
        </mxCell>
        <mxCell id="55" value="" style="endArrow=none;html=1;rounded=0;entryX=0;entryY=0.5;entryDx=0;entryDy=0;exitX=1;exitY=0.5;exitDx=0;exitDy=0;dashed=1;startArrow=classic;startFill=1;" parent="1" source="48" target="43" edge="1">
          <mxGeometry width="50" height="50" relative="1" as="geometry">
            <mxPoint x="510" y="930" as="sourcePoint" />
            <mxPoint x="560" y="880" as="targetPoint" />
          </mxGeometry>
        </mxCell>
        <mxCell id="56" value="" style="endArrow=none;dashed=1;html=1;dashPattern=1 3;strokeWidth=2;rounded=0;entryX=0.5;entryY=1;entryDx=0;entryDy=0;exitX=0.75;exitY=0;exitDx=0;exitDy=0;startArrow=classic;startFill=1;" parent="1" source="48" target="23" edge="1">
          <mxGeometry width="50" height="50" relative="1" as="geometry">
            <mxPoint x="510" y="630" as="sourcePoint" />
            <mxPoint x="560" y="580" as="targetPoint" />
          </mxGeometry>
        </mxCell>
        <mxCell id="57" value="" style="endArrow=none;dashed=1;html=1;dashPattern=1 3;strokeWidth=2;rounded=0;entryX=0.5;entryY=1;entryDx=0;entryDy=0;exitX=0.183;exitY=0.058;exitDx=0;exitDy=0;startArrow=classic;startFill=1;exitPerimeter=0;" parent="1" source="48" target="29" edge="1">
          <mxGeometry width="50" height="50" relative="1" as="geometry">
            <mxPoint x="510" y="630" as="sourcePoint" />
            <mxPoint x="560" y="580" as="targetPoint" />
          </mxGeometry>
        </mxCell>
        <mxCell id="58" value="" style="endArrow=none;dashed=1;html=1;dashPattern=1 3;strokeWidth=2;rounded=0;entryX=0.25;entryY=1;entryDx=0;entryDy=0;exitX=0.5;exitY=0;exitDx=0;exitDy=0;startArrow=classic;startFill=1;" parent="1" source="48" target="15" edge="1">
          <mxGeometry width="50" height="50" relative="1" as="geometry">
            <mxPoint x="510" y="630" as="sourcePoint" />
            <mxPoint x="560" y="580" as="targetPoint" />
          </mxGeometry>
        </mxCell>
        <mxCell id="60" value="" style="endArrow=none;dashed=1;html=1;dashPattern=1 3;strokeWidth=2;rounded=0;exitX=0.287;exitY=0.428;exitDx=0;exitDy=0;exitPerimeter=0;startArrow=classic;startFill=1;" parent="1" source="46" edge="1">
          <mxGeometry width="50" height="50" relative="1" as="geometry">
            <mxPoint x="190" y="620" as="sourcePoint" />
            <mxPoint x="240" y="570" as="targetPoint" />
          </mxGeometry>
        </mxCell>
        <mxCell id="61" value="" style="endArrow=none;dashed=1;html=1;dashPattern=1 3;strokeWidth=2;rounded=0;entryX=0.5;entryY=1;entryDx=0;entryDy=0;exitX=0.348;exitY=-0.086;exitDx=0;exitDy=0;exitPerimeter=0;startArrow=classic;startFill=1;" parent="1" source="48" target="13" edge="1">
          <mxGeometry width="50" height="50" relative="1" as="geometry">
            <mxPoint x="510" y="630" as="sourcePoint" />
            <mxPoint x="560" y="580" as="targetPoint" />
          </mxGeometry>
        </mxCell>
        <mxCell id="62" value="" style="endArrow=none;html=1;rounded=0;entryX=0.5;entryY=1;entryDx=0;entryDy=0;exitX=0.5;exitY=0;exitDx=0;exitDy=0;startArrow=classic;startFill=1;" parent="1" source="49" target="48" edge="1">
          <mxGeometry width="50" height="50" relative="1" as="geometry">
            <mxPoint x="510" y="900" as="sourcePoint" />
            <mxPoint x="560" y="850" as="targetPoint" />
          </mxGeometry>
        </mxCell>
        <mxCell id="63" value="&amp;lt;&amp;lt;component&amp;gt;&amp;gt;&lt;br&gt;X.component.ts" style="rounded=0;whiteSpace=wrap;html=1;" parent="1" vertex="1">
          <mxGeometry x="550" y="180" width="140" height="50" as="geometry" />
        </mxCell>
        <mxCell id="64" value="" style="endArrow=none;dashed=1;html=1;dashPattern=1 3;strokeWidth=2;rounded=0;entryX=1;entryY=0.25;entryDx=0;entryDy=0;exitX=0.193;exitY=1.14;exitDx=0;exitDy=0;startArrow=classic;startFill=1;exitPerimeter=0;" parent="1" source="63" target="22" edge="1">
          <mxGeometry width="50" height="50" relative="1" as="geometry">
            <mxPoint x="510" y="430" as="sourcePoint" />
            <mxPoint x="560" y="380" as="targetPoint" />
          </mxGeometry>
        </mxCell>
        <mxCell id="65" value="" style="endArrow=none;dashed=1;html=1;dashPattern=1 3;strokeWidth=2;rounded=0;entryX=1;entryY=0.25;entryDx=0;entryDy=0;exitX=0.75;exitY=1;exitDx=0;exitDy=0;startArrow=classic;startFill=1;" parent="1" source="63" target="16" edge="1">
          <mxGeometry width="50" height="50" relative="1" as="geometry">
            <mxPoint x="510" y="430" as="sourcePoint" />
            <mxPoint x="560" y="380" as="targetPoint" />
          </mxGeometry>
        </mxCell>
        <mxCell id="66" value="" style="endArrow=none;dashed=1;html=1;dashPattern=1 3;strokeWidth=2;rounded=0;entryX=0.75;entryY=0;entryDx=0;entryDy=0;exitX=-0.043;exitY=0.48;exitDx=0;exitDy=0;exitPerimeter=0;startArrow=classic;startFill=1;" parent="1" source="63" target="27" edge="1">
          <mxGeometry width="50" height="50" relative="1" as="geometry">
            <mxPoint x="510" y="430" as="sourcePoint" />
            <mxPoint x="560" y="380" as="targetPoint" />
            <Array as="points">
              <mxPoint x="410" y="204" />
            </Array>
          </mxGeometry>
        </mxCell>
        <mxCell id="67" value="" style="endArrow=classic;dashed=1;html=1;dashPattern=1 3;strokeWidth=2;rounded=0;entryX=0.25;entryY=0;entryDx=0;entryDy=0;startArrow=none;startFill=0;endFill=1;exitX=0.838;exitY=-0.1;exitDx=0;exitDy=0;exitPerimeter=0;" parent="1" source="12" target="63" edge="1">
          <mxGeometry width="50" height="50" relative="1" as="geometry">
            <mxPoint x="320" y="290" as="sourcePoint" />
            <mxPoint x="370" y="240" as="targetPoint" />
            <Array as="points">
              <mxPoint x="380" y="180" />
            </Array>
          </mxGeometry>
        </mxCell>
        <mxCell id="69" value="" style="endArrow=classic;html=1;rounded=0;entryX=0;entryY=1;entryDx=0;entryDy=0;endFill=1;dashed=1;" parent="1" target="63" edge="1">
          <mxGeometry width="50" height="50" relative="1" as="geometry">
            <mxPoint x="230" y="330" as="sourcePoint" />
            <mxPoint x="280" y="280" as="targetPoint" />
            <Array as="points">
              <mxPoint x="320" y="250" />
            </Array>
          </mxGeometry>
        </mxCell>
        <mxCell id="70" value="" style="endArrow=none;dashed=1;html=1;dashPattern=1 3;strokeWidth=2;rounded=0;entryX=0.518;entryY=-0.375;entryDx=0;entryDy=0;entryPerimeter=0;exitX=0.679;exitY=-0.02;exitDx=0;exitDy=0;exitPerimeter=0;endFill=0;startArrow=classic;startFill=1;" parent="1" source="63" target="7" edge="1">
          <mxGeometry width="50" height="50" relative="1" as="geometry">
            <mxPoint x="510" y="430" as="sourcePoint" />
            <mxPoint x="560" y="380" as="targetPoint" />
            <Array as="points">
              <mxPoint x="645" y="160" />
              <mxPoint x="450" y="160" />
              <mxPoint x="340" y="160" />
              <mxPoint x="280" y="160" />
              <mxPoint x="230" y="160" />
            </Array>
          </mxGeometry>
        </mxCell>
        <mxCell id="71" value="" style="endArrow=none;dashed=1;html=1;dashPattern=1 3;strokeWidth=2;rounded=0;entryX=0.454;entryY=1.2;entryDx=0;entryDy=0;entryPerimeter=0;exitX=0.75;exitY=0;exitDx=0;exitDy=0;endFill=0;startArrow=classic;startFill=1;" parent="1" source="13" target="12" edge="1">
          <mxGeometry width="50" height="50" relative="1" as="geometry">
            <mxPoint x="510" y="600" as="sourcePoint" />
            <mxPoint x="560" y="550" as="targetPoint" />
          </mxGeometry>
        </mxCell>
        <mxCell id="72" value="&amp;lt;&amp;lt;component&amp;gt;&amp;gt;&lt;br&gt;app.component.ts" style="rounded=0;whiteSpace=wrap;html=1;" parent="1" vertex="1">
          <mxGeometry x="719" y="308" width="120" height="60" as="geometry" />
        </mxCell>
        <mxCell id="75" style="edgeStyle=orthogonalEdgeStyle;rounded=0;orthogonalLoop=1;jettySize=auto;html=1;exitX=0.5;exitY=1;exitDx=0;exitDy=0;entryX=0.5;entryY=0;entryDx=0;entryDy=0;" parent="1" source="73" target="72" edge="1">
          <mxGeometry relative="1" as="geometry" />
        </mxCell>
        <mxCell id="73" value="&amp;lt;&amp;lt;route&amp;gt;&amp;gt;&lt;br&gt;app.routes.ts" style="rounded=0;whiteSpace=wrap;html=1;" parent="1" vertex="1">
          <mxGeometry x="719" y="216" width="120" height="60" as="geometry" />
        </mxCell>
        <mxCell id="76" value="" style="endArrow=none;html=1;rounded=0;entryX=1;entryY=0.25;entryDx=0;entryDy=0;exitX=0.675;exitY=-0.067;exitDx=0;exitDy=0;exitPerimeter=0;startArrow=classic;startFill=1;endFill=0;" edge="1" parent="1" source="73" target="63">
          <mxGeometry width="50" height="50" relative="1" as="geometry">
            <mxPoint x="460" y="350" as="sourcePoint" />
            <mxPoint x="510" y="300" as="targetPoint" />
            <Array as="points">
              <mxPoint x="801" y="190" />
            </Array>
          </mxGeometry>
        </mxCell>
      </root>
    </mxGraphModel>
  </diagram>
</mxfile>
